<?xml version="1.0" standalone="no"?>
<!DOCTYPE svg PUBLIC "-//W3C//DTD SVG 20010904//EN"
 "http://www.w3.org/TR/2001/REC-SVG-20010904/DTD/svg10.dtd">
<svg version="1.0" xmlns="http://www.w3.org/2000/svg"
 width="437.000000pt" height="437.000000pt" viewBox="0 0 437.000000 437.000000"
 preserveAspectRatio="xMidYMid meet">
<metadata>
Created by potrace 1.11, written by Peter Selinger 2001-2013
</metadata>
<g transform="translate(0.000000,437.000000) scale(0.100000,-0.100000)"
fill="#000000" stroke="none">
<path d="M1998 4225 c-2 -2 -25 -6 -53 -9 -79 -10 -138 -18 -160 -22 -60 -12
-72 -14 -92 -19 -411 -93 -783 -323 -1108 -686 -231 -256 -414 -632 -469 -959
-32 -191 -34 -252 -35 -1047 l-2 -791 28 -6 c15 -3 42 -8 58 -11 28 -5 46 -8
105 -20 14 -2 39 -7 55 -10 17 -3 41 -7 55 -10 30 -6 102 -19 230 -40 52 -9
106 -18 120 -20 22 -5 102 -18 185 -31 17 -2 41 -7 55 -9 14 -3 41 -7 60 -10
19 -2 57 -9 85 -14 27 -5 51 -8 53 -6 2 1 5 403 6 891 2 665 6 900 15 934 7
25 15 55 17 68 3 13 15 51 28 85 129 342 449 598 806 645 65 8 240 8 290 -1
238 -42 400 -124 561 -282 74 -73 160 -195 202 -286 35 -75 73 -209 83 -289 4
-36 8 -502 8 -1037 1 -534 4 -974 7 -977 2 -3 34 -8 69 -11 36 -3 92 -8 125
-11 134 -12 153 -13 213 -19 169 -14 299 -24 540 -40 56 -4 110 -8 119 -9 16
-1 18 65 17 1029 0 1084 -3 1193 -37 1355 -2 8 -9 42 -16 75 -52 251 -196 548
-379 785 -70 89 -256 282 -331 341 -24 19 -48 39 -55 45 -30 27 -133 99 -213
147 -222 133 -499 231 -743 262 -30 4 -64 9 -75 12 -21 5 -423 12 -427 8z"/>
</g>
</svg>
